<svg xmlns="http://www.w3.org/2000/svg" xmlns:xlink="http://www.w3.org/1999/xlink" width="50" height="50" viewBox="0 0 50 50">
    <defs>
        <path id="gn8xiasxea" d="M0 0L39.647 0 39.647 39.647 0 39.647z"/>
    </defs>
    <g fill="none" fill-rule="evenodd">
        <g>
            <g>
                <g>
                    <g transform="translate(-1136.000000, -4307.000000) translate(0.000000, 4180.000000) translate(135.000000, 38.000000) translate(1001.000000, 89.000000)">
                        <rect width="50" height="50" fill="#006EA8" rx="14.085"/>
                        <g>
                            <g transform="translate(5.000000, 4.392196)"/>
                            <path fill="#FEFEFE" d="M12.344 26.531L16.045 26.531 16.045 15.136 12.344 15.136zM18.108 26.488V15.155h3.358v1.51s.952-1.874 3.414-1.818c0 0 3.974-.42 4.17 4.113v7.557h-3.498v-6.605s-.056-2.183-2.015-1.931c0 0-1.679-.084-1.875 2.043v6.464h-3.554zM16.205 11.544c0 1.145-.927 2.071-2.07 2.071-1.145 0-2.072-.926-2.072-2.07 0-1.144.927-2.071 2.071-2.071 1.144 0 2.071.927 2.071 2.07" transform="translate(5.000000, 4.392196)"/>
                        </g>
                    </g>
                </g>
            </g>
        </g>
    </g>
</svg>
