<svg xmlns="http://www.w3.org/2000/svg" xmlns:xlink="http://www.w3.org/1999/xlink" width="50" height="50" viewBox="0 0 50 50">
    <defs>
        <path id="viv0wan4aa" d="M0 0L39.647 0 39.647 39.647 0 39.647z"/>
    </defs>
    <g fill="none" fill-rule="evenodd">
        <g>
            <g>
                <g>
                    <g transform="translate(-1070.000000, -4307.000000) translate(0.000000, 4180.000000) translate(135.000000, 38.000000) translate(935.000000, 89.000000)">
                        <rect width="50" height="50" fill="#ED2F32" rx="14.085"/>
                        <g>
                            <g transform="translate(5.000000, 4.392196)"/>
                            <path fill="#FEFEFE" d="M28.16 17.517s1.785.37 2.03 2.31c0 0 .74 5.448-.03 9.202 0 0-.001.02-.008.055l-.017.09c-.102.454-.56 1.835-2.406 2.04 0 0-8.771.647-15.173 0h-.017c-.218-.012-2.45-.207-2.538-3.631 0 0-.077-1.647-.088-3.451v-.78c.008-1.559.08-3.078.304-3.618 0 0 .4-1.815 2-2.217 0 0 6.74-.8 15.943 0zm-8.857 4.44h-1.3v5.428c-1.055 1.054-1.103.37-1.104.263v-5.692l-1.264.018V22.188l-.002.194c-.003.778-.011 2.548-.014 4.263V27.848c0 2.563 2.4.41 2.4.41v.746h1.284v-7.048zm7.685-.107h-.026c-.229.003-1.886.084-1.886 1.911v3.503s.052 1.77 2.04 1.77c0 0 1.705-.065 1.705-1.54v-.988h-1.27v.72s-.039.653-.563.653c0 0-.668.09-.668-.756v-1.424h2.514v-2.002s-.102-1.847-1.846-1.847zm-5.349-2.233h-1.28v9.369l1.28.018v-.711c2.218 1.827 2.405-.326 2.417-.535l.001-4.354c-.16-2.862-2.418-.782-2.418-.782v-3.005zm-6.19-.01h-4.397v1.299h1.496v8.063h1.406v-8.045h1.495v-1.317zm7.345 4.028v3.768s-.123.764-1.172.16v-4.23s1.172-.854 1.172.302zm4.129-.604c.603 0 .654.743.654.743v.847H26.32l.013-.86s-.013-.73.59-.73zM15.303 10.33L14.323 6.682 12.817 6.682 14.577 12.2 14.577 15.975 15.956 15.975 15.956 12.2 17.645 6.664 16.283 6.664zM24.76 9.023v5.319c-1.066 1.063-1.108.254-1.108.254V9.06h-1.215l-.02 5.825c0 .632.239.87.239.87.936.936 2.103-.524 2.103-.524v.707h1.234V9.023H24.76zM20.022 14.173s.056.653-.46.653c0 0-.59.144-.59-.653V10.67s-.024-.53.54-.557c0 0 .495-.02.51.573v3.488zm-.508-5.276c-1.859 0-1.801 1.869-1.801 1.869s-.014 1.853-.014 3.576c0 1.71 1.815 1.687 1.815 1.687 1.902 0 1.832-1.778 1.832-1.778v-3.613c0-1.862-1.832-1.741-1.832-1.741z" transform="translate(5.000000, 4.392196)"/>
                        </g>
                    </g>
                </g>
            </g>
        </g>
    </g>
</svg>
